# xmcd CD database file
#
# Track frame offsets:
#	150
#	13478
#	27271
#	44105
#	53702
#	72118
#	86574
#	102909
#	118267
#	140742
#	155311
#
# Disc length: 2344 seconds
#
# Revision: 2
# Processed by: cddbd v1.5.2PL0 Copyright (c) Steve Scherf et al.
# Submitted via: CDex 1.51
#
DISCID=9c09260b
DTITLE=Motorhead - Motorizer
DYEAR=2008
DGENRE=Rock
TTITLE0=Runaround Man
TTITLE1=Teach You How To Sing The Blues
TTITLE2=When The Eagle Screams
TTITLE3=Rock Out
TTITLE4=One Short Life
TTITLE5=Buried Alive
TTITLE6=English Rose
TTITLE7=Back On The Chain
TTITLE8=Heroes
TTITLE9=Time Is Right
TTITLE10=The Thousand Names Of God
EXTD=YEAR: 2008
EXTT0=
EXTT1=
EXTT2=
EXTT3=
EXTT4=
EXTT5=
EXTT6=
EXTT7=
EXTT8=
EXTT9=
EXTT10=
PLAYORDER=
